<svg id="图层_1" xmlns="http://www.w3.org/2000/svg" viewBox="0 0 600 600"><style>.st0{fill:#3a3938}</style><path class="st0" d="M358.8 337.4c-3.9-4.6-5.6-16.6-6.3-28 15.3-17.2 25-38.7 30.6-54.3 2.2-6.2 3.8-12.6 4.8-19.1 12.2-3 16.1-16.4 14.3-22.5-2.1-6.8 1-12.4 1-23.9 0-3.5-1.4-5.6-3.4-6.8 1.3-6.8 3-20.3 1.5-40.9-2.4-31.1-24.9-74.2-24.9-74.2l-.5 9.6c-7.2-26.3-42.6-42.6-42.6-42.6l9.6 14.8C327.5 32.8 272 28 270.1 28c-1.9 0 8.1 7.7 8.1 7.7-23-.5-47.4 8.6-47.4 8.6l14.8 4.3c-37.8 13.4-51.7 74.7-54.1 81.9-1.6 4.7.5 32.9 2.1 51.9-1.9 1.1-3.3 3.1-3.3 6.5 0 11.5 3.9 17.9 1.8 24.7-2.1 6.8 3.1 23.1 19.4 23.1h.4c1 6.3 2.6 12.5 4.8 18.5 5.6 15.7 15.4 37.4 30.8 54.6-.7 10.7-2.3 21.9-5.7 26.9l59.9 47.8 58-46.2-.9-.9zM503.7 392.5c-7.9-13.9-84.5-33.3-123.2-45.9L359.8 572h191.3S514 410.6 503.7 392.5zM96.3 392.5C86 410.6 48.9 572 48.9 572h194.7l-20.8-226.5c-37.5 12.7-118.3 32.8-126.5 47zM335.5 413.6l-33.8-22.8-33.8 22.8 9.1 27.6L253.9 572h95.5l-23.1-130.8z"/></svg>