<?xml version="1.0" encoding="UTF-8"?><svg id="_图层_1" xmlns="http://www.w3.org/2000/svg" viewBox="0 0 64 64"><path id="baseline" d="m44.78,63.17h-25.47c-.43,0-.78-.35-.78-.78h0c0-.43.35-.78.78-.78h25.47c.43,0,.78.35.78.78h0c0,.43-.35.78-.78.78Z" style="fill:#7f47dd; stroke-width:0px;"/><path id="hoodie" d="m47.71,42.69l-1.99-1.31c-.09.05-.17.1-.26.15-.29.16-.58.31-.88.45-.58.27-1.18.49-1.8.67l-.45.13-.37.11c-.25.07-.48.17-.73.26-1,.41-1.97.88-2.92,1.42-.99.54-1.97,1.13-3.06,1.73.21-.58.49-1.14.84-1.65.34-.51.72-1,1.15-1.44.87-.92,1.9-1.67,3.04-2.22.29-.14.59-.26.9-.37l.46-.16.39-.13c.5-.17.98-.37,1.45-.6.23-.11.45-.24.67-.37l.31-.21.33-.22.32-.24c.1-.09.2-.18.3-.26l.31-.26c.1-.08.19-.17.29-.26,1.53-1.44,2.65-3.26,3.23-5.28.3-1.02.48-2.07.55-3.13.08-1.08.05-2.16-.06-3.23-.48-4.36-2.51-8.41-5.72-11.4-1.6-1.51-3.47-2.72-5.51-3.56-1.01-.42-2.07-.72-3.13-1.07-.53-.17-1.08-.33-1.63-.52-.27-.09-.55-.19-.84-.29s-.57-.2-.86-.34c.29-.11.59-.21.89-.29.3-.08.6-.12.91-.17.61-.08,1.22-.1,1.83-.05,1.22.1,2.43.37,3.58.81,2.33.84,4.48,2.09,6.35,3.71,1.67,1.42,3.09,3.11,4.21,4.99-1.53-7.33-7.39-12.96-14.78-14.2-9.89-1.66-19.25,5.02-20.91,14.91l.05-.08.36-.59.38-.57c.13-.19.24-.38.39-.56.15-.18.27-.37.41-.55.3-.35.62-.68.98-.97.17-.15.34-.3.54-.43.19-.13.39-.25.59-.37.41-.24.85-.41,1.31-.52-.29.84-.67,1.65-1.13,2.42-.05.08-.1.17-.16.26l-.15.26c-.11.18-.22.36-.33.52-.21.36-.45.68-.65,1.04l-.31.52-.28.55c-.2.36-.35.74-.52,1.11-.31.75-.57,1.52-.78,2.31-.41,1.56-.62,3.17-.62,4.79-.01,1.59.21,3.17.68,4.7.22.74.52,1.46.89,2.14.36.68.78,1.33,1.27,1.93.49.6,1.03,1.16,1.63,1.65.6.51,1.25.96,1.93,1.36.69.4,1.41.76,2.15,1.06.38.15.76.29,1.14.42l.33.11.35.13c.23.09.45.19.67.31.22.11.43.24.64.37.21.14.4.28.59.44.35.3.68.64.97,1.01.6.73,1.04,1.57,1.29,2.48-1.77-.72-3.14-1.65-4.5-2.17-.18-.07-.35-.14-.52-.2l-.26-.09-.28-.08c-.44-.12-.87-.26-1.31-.42-.88-.3-1.73-.68-2.55-1.11-.42-.23-.83-.47-1.24-.73l-2.97,1.95c-.91.6-1.72,1.35-2.37,2.23-1.73,2.32-4.54,6.97-3.56,11.27.31,1.34.98,2.25,2.05,2.79,2.06,1.04,5.27.5,7.49-.14l-.93-6.06c-.34-.09-.69-.19-1.04-.26-.51-.1-1.02-.17-1.54-.19-.53-.02-1.05.02-1.57.12.48-.27.98-.48,1.51-.64.36-.11.73-.19,1.1-.26-.15-.09-.31-.18-.47-.26-.33-.16-.67-.27-1.02-.35.37-.09.74-.15,1.12-.16.39,0,.78.02,1.17.07.16.02.31.05.47.08l-.08-.55c-.01-.07-.02-.14-.02-.21,0-.75.61-1.36,1.36-1.36h26.59c.07,0,.14,0,.21.02.74.12,1.25.81,1.13,1.55l-.07.46c.36-.05.72-.07,1.08-.07.38.01.76.06,1.13.16-.35.08-.69.2-1.02.35-.16.08-.32.17-.47.26.37.07.74.16,1.1.26.52.16,1.03.37,1.51.64-.52-.1-1.04-.14-1.57-.12-.52.03-1.03.09-1.54.19-.16.03-.33.07-.49.11l-.98,6.36c2.06.56,4.98,1.02,6.97,0,1.07-.54,1.73-1.45,2.05-2.79.85-3.65-1.03-7.53-2.67-10.05-1.04-1.59-2.41-2.94-4-3.97Z" style="fill:#fff; stroke-width:0px;"/><path id="outline" d="m51.14,42.46l-.09-.09-3.52-2.29.26-.23c1.93-1.72,3.36-3.94,4.11-6.41.37-1.21.61-2.47.69-3.73.08-1.25.05-2.5-.09-3.75-.08-.67-.19-1.33-.34-1.99.08-.72.13-1.45.13-2.17-.25-11.18-9.52-20.04-20.7-19.78-10.82.25-19.54,8.96-19.78,19.78,0,.87.06,1.73.18,2.59-.05.25-.11.5-.15.74-.07.45-.15.91-.19,1.37l-.08.69-.03.69c-.03.46-.01.92,0,1.39,0,.23.03.46.04.7l.02.35.04.35c.1.94.29,1.86.56,2.77.54,1.84,1.45,3.55,2.69,5.02.3.37.64.71.97,1.04l.44.4-3.8,2.47-.09.09c-.28.31-6.95,7.58-5.29,14.72.45,1.95,1.51,3.36,3.13,4.18,1.22.58,2.57.86,3.92.82,1.64-.03,3.27-.28,4.85-.74l.09.56h25.88l.06-.42c1.41.38,2.87.58,4.33.6,1.35.04,2.69-.24,3.92-.82,1.62-.83,2.68-2.23,3.13-4.18,1.66-7.14-5.01-14.41-5.3-14.72Zm3.25,14.25c-.31,1.34-.98,2.25-2.05,2.79-2,1.02-4.91.56-6.97,0l.98-6.36c.16-.04.33-.08.49-.11.51-.1,1.02-.17,1.54-.19.53-.02,1.05.02,1.57.12-.48-.27-.98-.48-1.51-.64-.36-.11-.73-.19-1.1-.26.15-.09.31-.18.47-.26.33-.16.67-.27,1.02-.35-.37-.1-.75-.15-1.13-.16-.36,0-.72.02-1.08.07l.07-.46c.12-.74-.39-1.44-1.13-1.55-.07-.01-.14-.02-.21-.02h-26.59c-.75,0-1.36.61-1.36,1.36,0,.07,0,.14.02.21l.08.55c-.15-.03-.31-.06-.47-.08-.39-.05-.78-.08-1.17-.07-.38.01-.76.06-1.12.16.35.08.69.2,1.02.35.16.08.32.17.47.26-.37.07-.74.16-1.1.26-.52.16-1.03.37-1.51.64.52-.1,1.04-.14,1.57-.12.52.03,1.03.09,1.54.19.36.07.71.17,1.04.26l.93,6.06c-2.22.64-5.43,1.18-7.49.14-1.07-.54-1.73-1.45-2.05-2.79-.98-4.3,1.83-8.95,3.56-11.27.65-.88,1.45-1.63,2.37-2.23l2.97-1.95c.4.26.81.51,1.24.73.82.43,1.67.81,2.55,1.11.43.15.87.29,1.31.42l.28.08.26.09c.18.06.35.13.52.2,1.36.52,2.74,1.45,4.5,2.17-.25-.91-.69-1.75-1.29-2.48-.29-.37-.61-.7-.97-1.01-.19-.16-.38-.31-.59-.44-.2-.14-.42-.26-.64-.37-.22-.11-.44-.22-.67-.31l-.35-.13-.33-.11c-.39-.13-.77-.27-1.14-.42-.74-.3-1.46-.66-2.15-1.06-.68-.39-1.33-.85-1.93-1.36-.6-.5-1.14-1.05-1.63-1.65-.49-.6-.92-1.24-1.27-1.93-.37-.68-.66-1.4-.89-2.14-.47-1.52-.69-3.11-.68-4.7,0-1.62.2-3.23.62-4.79.21-.79.47-1.56.78-2.31.17-.37.32-.75.52-1.11l.28-.55.31-.52c.19-.36.44-.69.65-1.04.12-.17.22-.34.33-.52l.15-.26c.06-.09.11-.18.16-.26.46-.77.84-1.58,1.13-2.42-.46.11-.9.29-1.31.52-.2.11-.4.24-.59.37s-.36.28-.54.43c-.36.29-.68.62-.98.97-.14.18-.26.36-.41.55s-.26.37-.39.56l-.38.57-.36.59-.05.08c1.66-9.89,11.02-16.56,20.91-14.91,7.38,1.24,13.25,6.87,14.78,14.2-1.12-1.88-2.54-3.57-4.21-4.99-1.87-1.61-4.03-2.87-6.35-3.71-1.15-.44-2.35-.71-3.58-.81-.61-.04-1.22-.02-1.83.05-.31.05-.61.09-.91.17-.3.08-.6.18-.89.29.29.13.58.24.86.34s.56.2.84.29c.55.19,1.09.36,1.63.52,1.06.36,2.12.65,3.13,1.07,2.04.84,3.91,2.04,5.51,3.56,3.2,3,5.23,7.04,5.72,11.4.12,1.07.14,2.15.06,3.23-.07,1.06-.25,2.11-.55,3.13-.59,2.02-1.7,3.84-3.23,5.28-.1.09-.19.18-.29.26l-.31.26c-.1.08-.2.17-.3.26l-.32.24-.33.22-.31.21c-.21.13-.44.26-.67.37-.47.24-.95.44-1.45.6l-.39.13-.46.16c-.31.11-.61.23-.9.37-1.14.55-2.17,1.3-3.04,2.22-.42.45-.81.93-1.15,1.44-.35.51-.63,1.07-.84,1.65,1.09-.6,2.07-1.19,3.06-1.73.94-.53,1.91-1.01,2.92-1.42.25-.09.48-.19.73-.26l.37-.11.45-.13c.61-.18,1.21-.41,1.8-.67.3-.14.59-.29.88-.45.09-.05.17-.1.26-.15l1.99,1.31c1.6,1.03,2.96,2.39,4,3.97,1.65,2.52,3.53,6.4,2.67,10.05h0Z" style="stroke-width:0px;"/><path id="face" d="m48.32,28.26c0-2.85-.74-5.01-2.02-7.34-1.68-2.94-5.07-4.44-8.38-3.7-1.93.39-3.9.58-5.87.56-1.97.02-3.94-.17-5.88-.56-3.3-.74-6.7.77-8.37,3.71-1.29,2.33-2.02,4.49-2.02,7.34,0,5.2,2.44,8.5,6.23,10.38h0l.07.03c.34.17.7.32,1.06.46,6.87,3.17,8.92,7.19,8.92,7.19,0,0,2.05-4.01,8.92-7.19.36-.14.72-.3,1.06-.46l.07-.03h0c3.77-1.88,6.21-5.18,6.21-10.38Z" style="stroke-width:0px;"/><path id="eyes" d="m43.34,27.1l-8.7,3.66s1.5,3.22,4.94,2.06c3.89-1.32,3.76-5.72,3.76-5.72Zm-18.83,5.71c3.44,1.16,4.94-2.06,4.94-2.06l-8.7-3.66s-.13,4.4,3.76,5.72Z" style="fill:#a280ff; stroke-width:0px;"/><path id="code" d="m29.85,54.16l-1.52,1.52,1.52,1.51c.19.23.17.57-.06.77-.2.17-.49.17-.7,0l-1.9-1.9c-.21-.21-.21-.56,0-.77l1.9-1.9c.24-.18.58-.14.76.1.15.2.15.47,0,.67Zm4.21-2.13l-2.17,7.6c-.09.29-.39.45-.68.36-.28-.09-.44-.38-.37-.66l2.17-7.6c.09-.29.39-.45.68-.36.28.09.44.38.37.66Zm.99,1.37c.21-.21.56-.21.77,0l1.9,1.9c.21.21.21.56,0,.77l-1.89,1.9c-.22.21-.56.19-.77-.03-.2-.21-.2-.53,0-.74l1.52-1.52-1.51-1.52c-.21-.21-.22-.55,0-.76,0,0,0,0,0,0h-.01Z" style="fill:#a280ff; stroke-width:0px;"/></svg>