<?xml version="1.0" encoding="utf-8"?>
<svg version="1.1" id="nuxter" xmlns="http://www.w3.org/2000/svg"
  xmlns:xlink="http://www.w3.org/1999/xlink" x="0px" y="0px"
  viewBox="0 0 64 64" style="enable-background:new 0 0 64 64;" xml:space="preserve">
<style type="text/css">
	.st0{display:none;}
	.st1{display:inline;}
	.st2{fill:#FF6217;}
	.st3{display:inline;fill:#FF6217;}
	.st4{display:inline;fill:#EEEEEE;}
	.st5{font-family:'JCHEadA';}
	.st6{font-size:5.3229px;}
	.st7{fill:#FFFFFF;}
	.st8{fill:#7F47DD;}
</style>
<g id="ezdoc" class="st0">
	<g class="st1">
		<g>
			<path class="st2" d="M39.5,28.6L33.9,31c0,0,1,2.1,3.2,1.3C39.6,31.4,39.5,28.6,39.5,28.6z"/>
		</g>
		<g>
			<path class="st2" d="M27.3,32.3c2.2,0.8,3.2-1.3,3.2-1.3l-5.7-2.4C24.8,28.6,24.7,31.4,27.3,32.3z"/>
		</g>
	</g>
	<polygon class="st3" points="33.5,45.2 30.9,47.2 31.8,47.6 30.8,49.8 33.5,47.8 32.6,47.4 	"/>
	<text transform="matrix(1 0 0 1 26.5259 48.752)" class="st4 st5 st6">EZDOC</text>
</g>
<g>
	<path class="st7" d="M48.3,42.6l-2-1.3c-0.1,0.1-0.2,0.1-0.3,0.2c-0.3,0.2-0.6,0.3-0.9,0.5c-0.6,0.3-1.2,0.5-1.8,0.7l-0.5,0.1
		l-0.4,0.1c-0.3,0.1-0.5,0.2-0.7,0.3c-1,0.4-2,0.9-3,1.4c-1,0.5-2,1.2-3.1,1.8c0.2-0.6,0.5-1.2,0.9-1.7c0.3-0.5,0.7-1,1.2-1.5
		c0.9-0.9,1.9-1.7,3.1-2.3c0.3-0.1,0.6-0.3,0.9-0.4l0.5-0.2l0.4-0.1c0.5-0.2,1-0.4,1.5-0.6c0.2-0.1,0.5-0.2,0.7-0.4
		c0.1-0.1,0.2-0.1,0.3-0.2l0.3-0.2l0.3-0.2c0.1-0.1,0.2-0.2,0.3-0.3l0.3-0.3c0.1-0.1,0.2-0.2,0.3-0.3c1.6-1.5,2.7-3.3,3.3-5.4
		c0.3-1,0.5-2.1,0.6-3.2c0.1-1.1,0.1-2.2-0.1-3.3c-0.5-4.4-2.6-8.6-5.9-11.7c-1.6-1.5-3.6-2.8-5.6-3.6c-1-0.4-2.1-0.7-3.2-1.1
		C35.1,9.2,34.6,9,34,8.8c-0.3-0.1-0.6-0.2-0.9-0.3c-0.3-0.1-0.6-0.2-0.9-0.3c0.3-0.1,0.6-0.2,0.9-0.3c0.3-0.1,0.6-0.1,0.9-0.2
		c0.6-0.1,1.3-0.1,1.9-0.1c1.3,0.1,2.5,0.4,3.7,0.8c2.4,0.8,4.6,2.1,6.5,3.8c1.7,1.4,3.2,3.2,4.3,5.1C48.7,8.9,41.2,2.6,32.3,2.6
		c-9.2,0-16.9,6.7-18.3,15.5c0,0,0-0.1,0-0.1l0.4-0.6l0.4-0.6c0.1-0.2,0.3-0.4,0.4-0.6c0.1-0.2,0.3-0.4,0.4-0.6c0.3-0.4,0.6-0.7,1-1
		c0.2-0.2,0.4-0.3,0.5-0.4c0.2-0.1,0.4-0.3,0.6-0.4c0.4-0.2,0.9-0.4,1.3-0.5c-0.3,1-0.7,1.7-1.2,2.5c-0.1,0.1-0.1,0.2-0.2,0.3
		c-0.1,0.1-0.1,0.2-0.2,0.3c-0.1,0.2-0.2,0.4-0.3,0.5c-0.2,0.4-0.5,0.7-0.7,1.1l-0.3,0.5l-0.3,0.6c-0.2,0.4-0.4,0.8-0.5,1.1
		c-0.3,0.8-0.6,1.6-0.8,2.4c-0.4,1.6-0.6,3.3-0.6,4.9c0,1.7,0.2,3.3,0.7,4.8c0.2,0.8,0.5,1.5,0.9,2.2c0.4,0.7,0.8,1.4,1.3,2
		c0.5,0.6,1.1,1.2,1.7,1.7c0.6,0.5,1.3,1,2,1.4c0.7,0.4,1.4,0.8,2.2,1.1c0.4,0.2,0.8,0.3,1.2,0.4l0.3,0.1c0.1,0,0.2,0.1,0.4,0.1
		c0.2,0.1,0.5,0.2,0.7,0.3c0.2,0.1,0.4,0.2,0.7,0.4c0.2,0.1,0.4,0.3,0.6,0.5c0.4,0.3,0.7,0.7,1,1c0.6,0.8,1.1,1.6,1.3,2.5
		c-1.8-0.7-3.2-1.7-4.6-2.2c-0.2-0.1-0.4-0.1-0.5-0.2l-0.3-0.1l-0.3-0.1c-0.5-0.1-0.9-0.3-1.3-0.4c-0.9-0.3-1.8-0.7-2.6-1.1
		c-0.4-0.2-0.9-0.5-1.3-0.8l-3,2c-0.9,0.6-1.8,1.4-2.4,2.3c-1.8,2.4-4.7,7.2-3.6,11.6c0.3,1.4,1,2.3,2.1,2.9
		c2.1,1.1,5.4,0.5,7.7-0.1l-1-6.2c-0.4-0.1-0.7-0.2-1.1-0.3c-0.5-0.1-1-0.2-1.6-0.2c-0.5,0-1.1,0-1.6,0.1c0.5-0.3,1-0.5,1.5-0.7
		c0.4-0.1,0.7-0.2,1.1-0.3c-0.2-0.1-0.3-0.2-0.5-0.3c-0.3-0.2-0.7-0.3-1-0.4c0.4-0.1,0.8-0.2,1.2-0.2c0.4,0,0.8,0,1.2,0.1
		c0.2,0,0.3,0.1,0.5,0.1L17.3,51c-0.1-0.8,0.5-1.6,1.4-1.6h27.2c0.9,0,1.5,0.8,1.4,1.6l-0.1,0.5c0.4,0,0.7-0.1,1.1-0.1
		c0.4,0,0.8,0.1,1.2,0.2c-0.4,0.1-0.7,0.2-1,0.4c-0.2,0.1-0.3,0.2-0.5,0.3c0.4,0.1,0.8,0.2,1.1,0.3c0.5,0.2,1.1,0.4,1.5,0.7
		C50.1,53,49.5,53,49,53c-0.5,0-1.1,0.1-1.6,0.2c-0.2,0-0.3,0.1-0.5,0.1l-1,6.5c2.1,0.6,5.1,1,7.1,0c1.1-0.6,1.8-1.5,2.1-2.9
		c0.9-3.7-1.1-7.7-2.7-10.3C51.4,45,49.9,43.6,48.3,42.6z M32.3,46.3c0,0-2.1-4.1-9.1-7.4c-0.4-0.1-0.7-0.3-1.1-0.5c0,0,0,0-0.1,0
		l0,0c-3.9-1.9-6.4-5.3-6.4-10.6c0-2.9,0.8-5.1,2.1-7.5c1.7-3,5.2-4.5,8.6-3.8c1.9,0.4,3.9,0.6,6,0.6c2.1,0,4.2-0.2,6-0.6
		c3.4-0.7,6.9,0.8,8.6,3.8c1.3,2.4,2.1,4.6,2.1,7.5c0,5.3-2.5,8.7-6.4,10.6l0,0c0,0,0,0-0.1,0c-0.4,0.2-0.7,0.3-1.1,0.5
		C34.4,42.2,32.3,46.3,32.3,46.3z"/>
	<path class="st8" d="M19.2,61.9c-0.1,0-0.2,0-0.3,0l0.1,0.4h26.5l0.1-0.4c-0.1,0-0.2,0-0.3,0H19.2z"/>
	<polygon class="st8" points="35.4,53.6 35.4,53.6 35.4,53.6 	"/>
	<g>
		<path d="M47.2,28.2c0-2.6-0.7-4.6-1.9-6.7c-1.5-2.7-4.7-4.1-7.7-3.4c-1.7,0.4-3.5,0.5-5.4,0.5c-1.9,0-3.7-0.2-5.4-0.5
			c-3-0.6-6.2,0.7-7.7,3.4c-1.2,2.1-1.9,4.1-1.9,6.7c0,4.8,2.2,7.8,5.7,9.5l0,0c0,0,0,0,0.1,0c0.3,0.2,0.6,0.3,1,0.4
			c6.3,2.9,8.2,6.6,8.2,6.6s1.9-3.7,8.2-6.6c0.3-0.1,0.7-0.3,1-0.4c0,0,0,0,0.1,0l0,0C45,36,47.2,32.9,47.2,28.2z M25.4,32.3
			c-3.6-1.2-3.5-5.3-3.5-5.3l8,3.4C29.9,30.5,28.5,33.4,25.4,32.3z M39.2,32.3c-3.2,1.1-4.5-1.9-4.5-1.9l8-3.4
			C42.7,27.1,42.8,31.1,39.2,32.3z"/>
		<path d="M51.8,42.4L51.8,42.4l-3.7-2.4c0.1-0.1,0.2-0.2,0.3-0.2c2-1.7,3.5-4.1,4.2-6.6c0.4-1.3,0.6-2.5,0.7-3.8
			c0.1-1.3,0.1-2.6-0.1-3.8c-0.1-0.7-0.2-1.4-0.3-2c0.1-0.7,0.1-1.5,0.1-2.2C53,9.7,43.7,0.4,32.3,0.4c-11.4,0-20.7,9.3-20.7,20.7
			c0,0.9,0.1,1.8,0.2,2.7c-0.1,0.3-0.1,0.5-0.2,0.8c-0.1,0.5-0.2,0.9-0.2,1.4l-0.1,0.7l0,0.7c0,0.5,0,0.9,0,1.4c0,0.2,0,0.5,0,0.7
			l0,0.4l0,0.4c0.1,1,0.3,1.9,0.6,2.8c0.6,1.9,1.5,3.6,2.8,5.1c0.3,0.4,0.7,0.7,1,1.1c0.1,0.1,0.3,0.3,0.5,0.4l-3.9,2.5l-0.1,0.1
			c-0.3,0.3-7.1,7.8-5.4,15.1c0.5,2,1.5,3.4,3.2,4.3c1.2,0.6,2.6,0.8,4,0.8c1.8,0,3.6-0.4,5-0.8l0.1,0.6h26.5l0.1-0.4
			c1.3,0.3,2.9,0.6,4.4,0.6c1.4,0,2.8-0.2,4-0.8c1.7-0.8,2.7-2.3,3.2-4.3C59,50.1,52.1,42.7,51.8,42.4z M30,57.4
			c0.2,0.2,0.2,0.6,0,0.8c-0.2,0.2-0.6,0.2-0.8,0l-1.9-1.9c-0.2-0.2-0.2-0.6,0-0.8l1.9-1.9c0.2-0.2,0.6-0.2,0.8,0
			c0.2,0.2,0.2,0.6,0,0.8l-1.6,1.6L30,57.4z M34.3,52.2l-2.2,7.8c-0.1,0.3-0.4,0.5-0.7,0.4c-0.3-0.1-0.5-0.4-0.4-0.7l2.2-7.8
			c0.1-0.3,0.4-0.5,0.7-0.4C34.3,51.6,34.4,51.9,34.3,52.2z M38.1,56.3l-1.9,1.9c-0.2,0.2-0.6,0.2-0.8,0c-0.2-0.2-0.2-0.6,0-0.8
			l1.6-1.6l-1.6-1.6c-0.2-0.2-0.2-0.6,0-0.8c0,0,0,0,0,0l0,0c0,0,0,0,0,0c0.2-0.2,0.6-0.2,0.8,0l1.9,1.9
			C38.3,55.7,38.3,56.1,38.1,56.3z M55.2,56.9c-0.3,1.4-1,2.3-2.1,2.9c-2,1-5,0.6-7.1,0l1-6.5c0.2,0,0.3-0.1,0.5-0.1
			c0.5-0.1,1-0.2,1.6-0.2c0.5,0,1.1,0,1.6,0.1c-0.5-0.3-1-0.5-1.5-0.7c-0.4-0.1-0.7-0.2-1.1-0.3c0.2-0.1,0.3-0.2,0.5-0.3
			c0.3-0.2,0.7-0.3,1-0.4c-0.4-0.1-0.8-0.2-1.2-0.2c-0.4,0-0.7,0-1.1,0.1l0.1-0.5c0.1-0.8-0.5-1.6-1.4-1.6H18.7
			c-0.9,0-1.5,0.8-1.4,1.6l0.1,0.6c-0.2,0-0.3-0.1-0.5-0.1c-0.4-0.1-0.8-0.1-1.2-0.1c-0.4,0-0.8,0.1-1.2,0.2c0.4,0.1,0.7,0.2,1,0.4
			c0.2,0.1,0.3,0.2,0.5,0.3c-0.4,0.1-0.8,0.2-1.1,0.3c-0.5,0.2-1.1,0.4-1.5,0.7C13.9,53,14.5,53,15,53c0.5,0,1.1,0.1,1.6,0.2
			c0.4,0.1,0.7,0.2,1.1,0.3l1,6.2c-2.3,0.7-5.6,1.2-7.7,0.1c-1.1-0.6-1.8-1.5-2.1-2.9c-1-4.4,1.9-9.2,3.6-11.6
			c0.7-0.9,1.5-1.7,2.4-2.3l3-2c0.4,0.3,0.8,0.5,1.3,0.8c0.8,0.5,1.7,0.8,2.6,1.1c0.4,0.2,0.9,0.3,1.3,0.4l0.3,0.1l0.3,0.1
			c0.2,0.1,0.4,0.1,0.5,0.2c1.4,0.5,2.8,1.5,4.6,2.2c-0.2-1-0.7-1.8-1.3-2.5c-0.3-0.4-0.6-0.7-1-1c-0.2-0.2-0.4-0.3-0.6-0.5
			c-0.2-0.1-0.4-0.3-0.7-0.4c-0.2-0.1-0.5-0.2-0.7-0.3c-0.1,0-0.2-0.1-0.4-0.1L23.9,41c-0.4-0.1-0.8-0.3-1.2-0.4
			c-0.8-0.3-1.5-0.7-2.2-1.1c-0.7-0.4-1.4-0.9-2-1.4c-0.6-0.5-1.2-1.1-1.7-1.7c-0.5-0.6-0.9-1.3-1.3-2c-0.4-0.7-0.7-1.4-0.9-2.2
			c-0.5-1.5-0.7-3.2-0.7-4.8c0-1.6,0.2-3.3,0.6-4.9c0.2-0.8,0.5-1.6,0.8-2.4c0.2-0.4,0.3-0.8,0.5-1.1l0.3-0.6l0.3-0.5
			c0.2-0.4,0.5-0.7,0.7-1.1c0.1-0.2,0.2-0.4,0.3-0.5c0.1-0.1,0.1-0.2,0.2-0.3c0.1-0.1,0.1-0.2,0.2-0.3c0.4-0.8,0.9-1.5,1.2-2.5
			c-0.5,0.1-0.9,0.3-1.3,0.5c-0.2,0.1-0.4,0.2-0.6,0.4c-0.2,0.1-0.4,0.3-0.5,0.4c-0.4,0.3-0.7,0.7-1,1c-0.1,0.2-0.3,0.4-0.4,0.6
			c-0.1,0.2-0.3,0.4-0.4,0.6l-0.4,0.6L14,18c0,0,0,0.1,0,0.1c1.5-8.8,9.1-15.5,18.3-15.5c9,0,16.4,6.4,18.2,14.8
			c-1.1-1.9-2.6-3.7-4.3-5.1c-1.9-1.7-4.1-2.9-6.5-3.8c-1.2-0.4-2.4-0.8-3.7-0.8c-0.6,0-1.3,0-1.9,0.1c-0.3,0-0.6,0.1-0.9,0.2
			c-0.3,0.1-0.6,0.2-0.9,0.3c0.3,0.1,0.6,0.2,0.9,0.3c0.3,0.1,0.6,0.2,0.9,0.3c0.6,0.2,1.1,0.4,1.7,0.5c1.1,0.4,2.2,0.7,3.2,1.1
			c2.1,0.9,4,2.1,5.6,3.6c3.3,3.1,5.4,7.3,5.9,11.7c0.1,1.1,0.1,2.2,0.1,3.3c-0.1,1.1-0.3,2.2-0.6,3.2c-0.6,2.1-1.7,3.9-3.3,5.4
			c-0.1,0.1-0.2,0.2-0.3,0.3L46,38.2c-0.1,0.1-0.2,0.2-0.3,0.3l-0.3,0.2L45,39c-0.1,0.1-0.2,0.1-0.3,0.2c-0.2,0.1-0.4,0.3-0.7,0.4
			c-0.5,0.2-1,0.4-1.5,0.6l-0.4,0.1l-0.5,0.2c-0.3,0.1-0.6,0.2-0.9,0.4c-1.2,0.6-2.2,1.4-3.1,2.3c-0.4,0.5-0.8,1-1.2,1.5
			c-0.3,0.5-0.7,1.1-0.9,1.7c1.1-0.6,2.1-1.2,3.1-1.8c1-0.5,2-1.1,3-1.4c0.3-0.1,0.5-0.2,0.7-0.3l0.4-0.1l0.5-0.1
			c0.6-0.2,1.2-0.4,1.8-0.7c0.3-0.1,0.6-0.3,0.9-0.5c0.1-0.1,0.2-0.1,0.3-0.2l2,1.3c1.6,1.1,3,2.4,4.1,4.1
			C54.1,49.2,56,53.2,55.2,56.9z"/>
		<path d="M45.3,63.6H19.2c-0.4,0-0.8-0.4-0.8-0.8l0,0c0-0.4,0.4-0.8,0.8-0.8h26.1c0.4,0,0.8,0.4,0.8,0.8l0,0
			C46.1,63.2,45.8,63.6,45.3,63.6z"/>
	</g>
</g>
</svg>