<svg xmlns="http://www.w3.org/2000/svg" viewBox="0 0 586.65 103.58"><path d="M21.52,0H54.7L70.4,51.22Q72.53,58,73.67,62.94a80.43,80.43,0,0,1,1.63,9.38h1.21q.28-4.2,1.14-9.31C78.21,59.6,79,55.62,80,51.08L90.79,0h24.58L93.84,101H60.67L43.48,44.47a80.69,80.69,0,0,1-2.06-7.85,73.91,73.91,0,0,1-1.28-8.42H39.07q-.7,5.55-1.49,10.55t-1.7,9.41L24.72,101H0Z"/><path d="M135.11,0h26a.53.53,0,0,1,.52.64L149.54,56.26a62.26,62.26,0,0,0-1.24,7.28,61.49,61.49,0,0,0-.39,6.26,14,14,0,0,0,6,11.88A14.51,14.51,0,0,0,162.18,84,15.31,15.31,0,0,0,175,77.79q4.76-6.26,8.38-22.52L195.55.41a.53.53,0,0,1,.52-.41H221a.52.52,0,0,1,.51.63L208.71,62.8q-4.4,21.32-15.91,31t-32.25,9.74q-19.11,0-29.34-8.78T121,69.69a68.79,68.79,0,0,1,.36-7.14A45.89,45.89,0,0,1,122.47,56L134.6.41A.52.52,0,0,1,135.11,0Z"/><path d="M234.86,0h28.7l6.53,18.61c.05.1.12.29.22.57q2.13,6.39,3.69,12.36L298.44,0h31.61L290.34,47.38l22,53.57h-28.7l-8.95-24.44q-.78-2.34-1.78-5.58T270.8,64L243.88,101H211.06l44-54.56Z"/><path d="M335,0H413.1l-4.2,19.46H383.12L365.78,101h-27.2l17.33-81.49h-25Z"/><path d="M424.32,0h71.11l-4.05,18.75H447.12L442.93,39h41.63l-3.83,18.19H439l-5.26,24.86h45.82l-4,18.9H402.79Z"/><path d="M512.34,0h38.08q18,0,27.13,6.29T586.65,25q0,11.14-7.25,17.83t-20.53,7.74a20.34,20.34,0,0,1,6.39,6,29.14,29.14,0,0,1,3.63,10.06L576.35,101h-26.5l-7.11-32.47q-1-4.26-3.65-6t-8.42-1.7h-4.83L517.38,101H491Zm22.23,18.47-4.76,23.59h9.59q9.39,0,14.5-3.45a11,11,0,0,0,5.11-9.7c0-3.45-1.17-6.06-3.51-7.81s-5.82-2.63-10.41-2.63Z"/></svg>